# xmcd
#
# Track frame offsets: 
#        150
#        28154
#        56285
#        59804
#        107593
#        126975
#        155001
#        199305
#        231942
#
# Disc length: 4219 seconds
#
# Revision: 0
# Processed by: cddbd v1.5.2PL0 Copyright (c) Steve Scherf et al.
# Submitted via: ExactAudioCopy v0.99pb5
#
DISCID=83107909
DTITLE=Matt Schofield - Live from the Archive
DYEAR=2010
DGENRE=Blues
TTITLE0=All You Need
TTITLE1=Siftin' Thru Ashes
TTITLE2=Band Intro
TTITLE3=Light's Are On But Nobody's Home
TTITLE4=Room at the Back
TTITLE5=On My Way
TTITLE6=Black Cat Bone
TTITLE7=Sitting on Top of the World
TTITLE8=The Letter
EXTD=
EXTT0=
EXTT1=
EXTT2=
EXTT3=
EXTT4=
EXTT5=
EXTT6=
EXTT7=
EXTT8=
PLAYORDER=
